<mxfile host="app.diagrams.net" agent="Mozilla/5.0 (Windows NT 10.0; Win64; x64; rv:135.0) Gecko/20100101 Firefox/135.0" version="25.0.3">
  <diagram name="Page-1" id="iOP9NucEH-zzFqvL8uEB">
    <mxGraphModel dx="1981" dy="1586" grid="1" gridSize="10" guides="1" tooltips="1" connect="1" arrows="1" fold="1" page="1" pageScale="1" pageWidth="850" pageHeight="1100" math="0" shadow="0">
      <root>
        <mxCell id="0" />
        <mxCell id="1" parent="0" />
        <mxCell id="ymEb2g0kcDg-jAVKu9gT-15" value="API GATEWAY" style="swimlane;startSize=0;fontColor=none;noLabel=1;dashed=1;dashPattern=12 12;" parent="1" vertex="1">
          <mxGeometry x="40" y="280" width="160" height="160" as="geometry" />
        </mxCell>
        <mxCell id="ymEb2g0kcDg-jAVKu9gT-3" value="API GATEWAY" style="rounded=1;whiteSpace=wrap;html=1;fillColor=#f5f5f5;fontColor=#333333;strokeColor=#666666;" parent="ymEb2g0kcDg-jAVKu9gT-15" vertex="1">
          <mxGeometry x="20" y="50" width="120" height="60" as="geometry" />
        </mxCell>
        <mxCell id="ymEb2g0kcDg-jAVKu9gT-30" value="&lt;b&gt;Api Gateway&lt;br&gt;&lt;/b&gt;" style="text;html=1;align=center;verticalAlign=middle;resizable=0;points=[];autosize=1;strokeColor=none;fillColor=none;" parent="ymEb2g0kcDg-jAVKu9gT-15" vertex="1">
          <mxGeometry x="35" y="130" width="90" height="30" as="geometry" />
        </mxCell>
        <mxCell id="ymEb2g0kcDg-jAVKu9gT-73" value="TỔNG QUAN HỆ THỐNG BK CALL" style="text;html=1;align=center;verticalAlign=middle;resizable=0;points=[];autosize=1;strokeColor=#b85450;fillColor=#f8cecc;fontStyle=1" parent="1" vertex="1">
          <mxGeometry x="-292" y="640" width="220" height="30" as="geometry" />
        </mxCell>
        <mxCell id="clGpNB9oHALhCs1MbPwn-36" value="&lt;div&gt;- Cung cấp dịch vụ gọi OTP, gọi Maketing, gọi CSKH &lt;br&gt;&lt;/div&gt;&lt;div&gt;- Sử dụng SIM &lt;br&gt;&lt;/div&gt;&lt;div&gt;&lt;br&gt;&lt;/div&gt;" style="text;html=1;whiteSpace=wrap;overflow=hidden;rounded=0;" parent="1" vertex="1">
          <mxGeometry x="-387" y="700" width="410" height="60" as="geometry" />
        </mxCell>
        <mxCell id="clGpNB9oHALhCs1MbPwn-37" value="BK Call Server" style="swimlane;startSize=0;rounded=1;shadow=0;labelBackgroundColor=none;noLabel=1;fillColor=#dae8fc;strokeColor=#6c8ebf;" parent="1" vertex="1">
          <mxGeometry x="477.5" y="330" width="432.5" height="210" as="geometry" />
        </mxCell>
        <mxCell id="clGpNB9oHALhCs1MbPwn-38" value="&lt;b&gt;BK Call Server&lt;/b&gt;" style="text;html=1;align=center;verticalAlign=middle;resizable=0;points=[];autosize=1;strokeColor=none;fillColor=none;" parent="clGpNB9oHALhCs1MbPwn-37" vertex="1">
          <mxGeometry x="177.5" y="170" width="110" height="30" as="geometry" />
        </mxCell>
        <mxCell id="zc9f0fyP2lUzmCLjNaSD-10" style="edgeStyle=orthogonalEdgeStyle;rounded=0;orthogonalLoop=1;jettySize=auto;html=1;" edge="1" parent="clGpNB9oHALhCs1MbPwn-37" source="clGpNB9oHALhCs1MbPwn-39">
          <mxGeometry relative="1" as="geometry">
            <mxPoint x="62.5" y="-70" as="targetPoint" />
          </mxGeometry>
        </mxCell>
        <mxCell id="clGpNB9oHALhCs1MbPwn-39" value="BK Call&amp;nbsp; Service" style="rounded=1;whiteSpace=wrap;html=1;fillColor=#fff2cc;strokeColor=#d6b656;" parent="clGpNB9oHALhCs1MbPwn-37" vertex="1">
          <mxGeometry x="20" y="20" width="170" height="60" as="geometry" />
        </mxCell>
        <mxCell id="zc9f0fyP2lUzmCLjNaSD-5" style="edgeStyle=orthogonalEdgeStyle;rounded=0;orthogonalLoop=1;jettySize=auto;html=1;" edge="1" parent="clGpNB9oHALhCs1MbPwn-37" source="clGpNB9oHALhCs1MbPwn-40" target="clGpNB9oHALhCs1MbPwn-39">
          <mxGeometry relative="1" as="geometry" />
        </mxCell>
        <mxCell id="zc9f0fyP2lUzmCLjNaSD-6" style="edgeStyle=orthogonalEdgeStyle;rounded=0;orthogonalLoop=1;jettySize=auto;html=1;" edge="1" parent="clGpNB9oHALhCs1MbPwn-37" source="clGpNB9oHALhCs1MbPwn-40" target="clGpNB9oHALhCs1MbPwn-49">
          <mxGeometry relative="1" as="geometry" />
        </mxCell>
        <mxCell id="clGpNB9oHALhCs1MbPwn-40" value="Database " style="shape=cylinder3;whiteSpace=wrap;html=1;boundedLbl=1;backgroundOutline=1;size=15;fillColor=#dae8fc;strokeColor=#6c8ebf;" parent="clGpNB9oHALhCs1MbPwn-37" vertex="1">
          <mxGeometry x="230" y="20" width="60" height="60" as="geometry" />
        </mxCell>
        <mxCell id="clGpNB9oHALhCs1MbPwn-41" value="&lt;div&gt;- Các Cuộc Gọi được thực hiện tự động&lt;/div&gt;&lt;div&gt;- Sim bị khóa cần thay thủ công&lt;/div&gt;&lt;div&gt;&lt;br&gt;&lt;/div&gt;&lt;div&gt;&lt;br&gt;&lt;/div&gt;" style="text;html=1;whiteSpace=wrap;overflow=hidden;rounded=0;" parent="clGpNB9oHALhCs1MbPwn-37" vertex="1">
          <mxGeometry x="15" y="112.5" width="295" height="47.5" as="geometry" />
        </mxCell>
        <mxCell id="clGpNB9oHALhCs1MbPwn-49" value="FE Web quản trị " style="image;aspect=fixed;html=1;points=[];align=center;fontSize=12;image=img/lib/azure2/general/Browser.svg;" parent="clGpNB9oHALhCs1MbPwn-37" vertex="1">
          <mxGeometry x="332.5" y="24" width="65" height="52" as="geometry" />
        </mxCell>
        <mxCell id="clGpNB9oHALhCs1MbPwn-57" value="React JS" style="text;html=1;align=center;verticalAlign=middle;resizable=0;points=[];autosize=1;strokeColor=none;fillColor=none;fontStyle=1;fontColor=#FF33FF;" parent="clGpNB9oHALhCs1MbPwn-37" vertex="1">
          <mxGeometry x="327.5" y="100" width="70" height="30" as="geometry" />
        </mxCell>
        <mxCell id="clGpNB9oHALhCs1MbPwn-56" value="Partner" style="text;html=1;align=center;verticalAlign=middle;resizable=0;points=[];autosize=1;strokeColor=none;fillColor=none;fontStyle=1;fontColor=#FF33FF;" parent="1" vertex="1">
          <mxGeometry x="-212" y="470" width="60" height="30" as="geometry" />
        </mxCell>
        <mxCell id="zc9f0fyP2lUzmCLjNaSD-15" style="edgeStyle=orthogonalEdgeStyle;rounded=0;orthogonalLoop=1;jettySize=auto;html=1;" edge="1" parent="1" source="zc9f0fyP2lUzmCLjNaSD-1" target="ymEb2g0kcDg-jAVKu9gT-15">
          <mxGeometry relative="1" as="geometry">
            <Array as="points">
              <mxPoint x="-20" y="375" />
              <mxPoint x="-20" y="375" />
            </Array>
          </mxGeometry>
        </mxCell>
        <mxCell id="zc9f0fyP2lUzmCLjNaSD-1" value="Cloud" style="html=1;whiteSpace=wrap;strokeColor=none;fillColor=#0079D6;labelPosition=center;verticalLabelPosition=middle;verticalAlign=top;align=center;fontSize=12;outlineConnect=0;spacingTop=-6;fontColor=#FFFFFF;sketch=0;shape=mxgraph.sitemap.cloud;" vertex="1" parent="1">
          <mxGeometry x="-242" y="340" width="120" height="70" as="geometry" />
        </mxCell>
        <mxCell id="zc9f0fyP2lUzmCLjNaSD-4" style="edgeStyle=orthogonalEdgeStyle;rounded=0;orthogonalLoop=1;jettySize=auto;html=1;entryX=-0.002;entryY=0.375;entryDx=0;entryDy=0;entryPerimeter=0;" edge="1" parent="1" source="ymEb2g0kcDg-jAVKu9gT-15" target="clGpNB9oHALhCs1MbPwn-37">
          <mxGeometry relative="1" as="geometry">
            <Array as="points">
              <mxPoint x="290" y="409" />
              <mxPoint x="290" y="409" />
            </Array>
          </mxGeometry>
        </mxCell>
        <mxCell id="zc9f0fyP2lUzmCLjNaSD-7" value="GSM 32 PORT Cắm 32 SIM" style="fontColor=#0066CC;verticalAlign=top;verticalLabelPosition=bottom;labelPosition=center;align=center;html=1;outlineConnect=0;fillColor=#CCCCCC;strokeColor=#6881B3;gradientColor=none;gradientDirection=north;strokeWidth=2;shape=mxgraph.networks.wireless_hub;" vertex="1" parent="1">
          <mxGeometry x="830" y="175" width="100" height="85" as="geometry" />
        </mxCell>
        <mxCell id="zc9f0fyP2lUzmCLjNaSD-8" value="GSM 32 PORT Cắm 32 SIM" style="fontColor=#0066CC;verticalAlign=top;verticalLabelPosition=bottom;labelPosition=center;align=center;html=1;outlineConnect=0;fillColor=#CCCCCC;strokeColor=#6881B3;gradientColor=none;gradientDirection=north;strokeWidth=2;shape=mxgraph.networks.wireless_hub;" vertex="1" parent="1">
          <mxGeometry x="460" y="170" width="100" height="85" as="geometry" />
        </mxCell>
        <mxCell id="zc9f0fyP2lUzmCLjNaSD-9" value="GSM 32 PORT Cắm 32 SIM" style="fontColor=#0066CC;verticalAlign=top;verticalLabelPosition=bottom;labelPosition=center;align=center;html=1;outlineConnect=0;fillColor=#CCCCCC;strokeColor=#6881B3;gradientColor=none;gradientDirection=north;strokeWidth=2;shape=mxgraph.networks.wireless_hub;" vertex="1" parent="1">
          <mxGeometry x="650" y="170" width="100" height="85" as="geometry" />
        </mxCell>
        <mxCell id="zc9f0fyP2lUzmCLjNaSD-11" style="edgeStyle=orthogonalEdgeStyle;rounded=0;orthogonalLoop=1;jettySize=auto;html=1;" edge="1" parent="1" source="clGpNB9oHALhCs1MbPwn-39" target="zc9f0fyP2lUzmCLjNaSD-9">
          <mxGeometry relative="1" as="geometry" />
        </mxCell>
        <mxCell id="zc9f0fyP2lUzmCLjNaSD-12" style="edgeStyle=orthogonalEdgeStyle;rounded=0;orthogonalLoop=1;jettySize=auto;html=1;" edge="1" parent="1" target="zc9f0fyP2lUzmCLjNaSD-7">
          <mxGeometry relative="1" as="geometry">
            <mxPoint x="593" y="360" as="sourcePoint" />
            <mxPoint x="710" y="265" as="targetPoint" />
            <Array as="points">
              <mxPoint x="593" y="300" />
              <mxPoint x="880" y="300" />
            </Array>
          </mxGeometry>
        </mxCell>
        <mxCell id="zc9f0fyP2lUzmCLjNaSD-13" style="edgeStyle=orthogonalEdgeStyle;rounded=0;orthogonalLoop=1;jettySize=auto;html=1;entryX=0.5;entryY=1;entryDx=0;entryDy=0;entryPerimeter=0;" edge="1" parent="1" source="clGpNB9oHALhCs1MbPwn-39" target="zc9f0fyP2lUzmCLjNaSD-1">
          <mxGeometry relative="1" as="geometry">
            <mxPoint x="-40" y="530" as="targetPoint" />
            <Array as="points">
              <mxPoint x="583" y="500" />
              <mxPoint x="-182" y="500" />
            </Array>
          </mxGeometry>
        </mxCell>
        <mxCell id="zc9f0fyP2lUzmCLjNaSD-16" value="&lt;div&gt;Callback Báo Lại Kết quả cuộc gọi&lt;/div&gt;&lt;div&gt;Thành công hay thất bại&lt;/div&gt;" style="edgeLabel;html=1;align=center;verticalAlign=middle;resizable=0;points=[];" vertex="1" connectable="0" parent="zc9f0fyP2lUzmCLjNaSD-13">
          <mxGeometry x="-0.1502" y="1" relative="1" as="geometry">
            <mxPoint x="-41" y="14" as="offset" />
          </mxGeometry>
        </mxCell>
      </root>
    </mxGraphModel>
  </diagram>
</mxfile>
